<svg width="16" height="16" version="1.1" xmlns="http://www.w3.org/2000/svg"><path fill="rgb(240,150,239)" stroke="rgb(240,150,239)" stroke-width="1" opacity="1" d="M 4.5 2 Q 7.5 3.5 4.5 5 Q 2.3 5.8 3 3.5 L 4.5 2 Z "></path><path fill="rgb(240,150,239)" stroke="rgb(240,150,239)" stroke-width="1" opacity="1" d="M 11.5 2 L 9.5 5 Q 7.3 5.8 8 3.5 Q 9.8 5.1 11.5 2 Z "></path><path fill="rgb(240,150,239)" stroke="rgb(240,150,239)" stroke-width="1" opacity="1" d="M 6.5 7 L 8 7.5 L 5.5 9 L 6.5 7 Z "></path><path fill="rgb(164,24,178)" stroke="rgb(164,24,178)" stroke-width="1" opacity="1" d="M 5.5 2 L 11 2.5 Q 9.8 5.2 8.5 3 L 4.5 4 L 5.5 2 Z "></path><path fill="rgb(164,24,178)" stroke="rgb(164,24,178)" stroke-width="1" opacity="1" d="M 6.5 8 L 10.5 9 L 12.5 8 L 11.5 10 L 5 9.5 L 6.5 8 Z "></path><path fill="rgb(21,191,254)" stroke="rgb(21,191,254)" stroke-width="1" opacity="1" d="M 13.5 2 L 10.5 6 L 13.5 2 Z "></path><path fill="rgb(21,191,254)" stroke="rgb(21,191,254)" stroke-width="1" opacity="1" d="M 6.5 4 L 7 5.5 L 2 9.5 L 6.5 4 Z "></path><path fill="rgb(251,244,252)" stroke="rgb(251,244,252)" stroke-width="1" opacity="1" d="M 6.5 1 L 10 1.5 L 6.5 2 L 6.5 1 Z "></path><path fill="rgb(84,206,254)" stroke="rgb(84,206,254)" stroke-width="1" opacity="1" d="M 12.5 4 L 10.5 7 L 6 6.5 L 9.5 5 Q 11 7.5 12.5 4 Z "></path><path fill="rgb(254,254,254)" stroke="rgb(254,254,254)" stroke-width="1" opacity="1" d="M 1.5 5 L 4 6.5 Q 2.5 9.5 1 6.5 L 1.5 5 Z "></path><path fill="rgb(254,254,254)" stroke="rgb(254,254,254)" stroke-width="1" opacity="1" d="M 9.5 11 L 10.5 13 L 9.5 11 Z "></path><path fill="rgb(254,254,254)" stroke="rgb(254,254,254)" stroke-width="1" opacity="1" d="M 4.5 12 L 8 12.5 L 4.5 13 L 4.5 12 Z "></path><path fill="rgb(255,255,255)" stroke="rgb(255,255,255)" stroke-width="1" opacity="1" d="M 0 0 Q 5.6 -1.9 4 3 Q 1 2 2 5 L 4 5.5 L 2.5 6 L 1 5.5 L 2 8.5 L 0 9 L 0 0 Z "></path><path fill="rgb(255,255,255)" stroke="rgb(255,255,255)" stroke-width="1" opacity="1" d="M 12.5 0 L 16 0.5 L 12.5 1 L 12.5 0 Z "></path><path fill="rgb(255,255,255)" stroke="rgb(255,255,255)" stroke-width="1" opacity="1" d="M 14.5 3 Q 16.8 3.8 16 7.5 L 16 9.5 L 16 16 L 0 16 L 0 11 L 8.5 11 L 8.5 12 L 4 12.5 L 10.5 13 Q 14.9 10.9 15 4.5 L 14.5 3 Z "></path><path fill="rgb(153,230,254)" stroke="rgb(153,230,254)" stroke-width="1" opacity="1" d="M 3.5 7 L 4.5 9 L 3.5 7 Z "></path><path fill="rgb(153,230,254)" stroke="rgb(153,230,254)" stroke-width="1" opacity="1" d="M 1.5 9 L 2.5 11 Q -0.3 11.7 1.5 9 Z "></path><path fill="rgb(225,215,226)" stroke="rgb(225,215,226)" stroke-width="1" opacity="1" d="M 13.5 4 L 15 6.5 L 13 11 L 11 10.5 Q 14.1 8.8 12.5 7 Q 14.8 7.8 14 5.5 L 13.5 4 Z "></path><path fill="rgb(203,172,209)" stroke="rgb(203,172,209)" stroke-width="1" opacity="1" d="M 4.5 9 L 11 10.5 L 5.5 11 L 4.5 9 Z "></path></svg>