<svg width="current" height="current" viewBox="0 0 27 25" stroke="current" fill="none" xmlns="http://www.w3.org/2000/svg">
<mask id="path-1-outside-1_1_391" maskUnits="userSpaceOnUse" x="0" y="0" width="27" height="25" fill="current" stroke="current">
<rect fill="current" width="27" height="25" stroke="current"/>
<path d="M17.2711 3.26018C17.0923 2.9516 16.8413 2.69107 16.5395 2.50101C16.2377 2.31095 15.8943 2.19705 15.5388 2.16911C15.1846 2.13868 14.8283 2.19562 14.5013 2.33496C14.1742 2.47429 13.8863 2.69176 13.6629 2.96827L7.02082 10.6967L2.10145 13.5344C1.59746 13.827 1.22942 14.3069 1.07738 14.8695C1.00077 15.1485 0.980783 15.44 1.01859 15.7268C1.05639 16.0136 1.15123 16.29 1.29751 16.5396L3.01546 19.5209C3.30813 20.0249 3.78796 20.3929 4.35058 20.545C4.53767 20.5962 4.73084 20.622 4.92483 20.6215C5.30768 20.6205 5.68369 20.5199 6.01589 20.3296L6.30301 20.8082C6.83534 21.7287 7.51235 22.5576 8.30809 23.2631L8.73877 23.6459C8.97777 23.8667 9.28919 23.9926 9.61449 24C9.84942 24.0003 10.0803 23.9393 10.2844 23.8229L11.6961 23.0046C11.8797 22.8987 12.0354 22.7506 12.1504 22.5726C12.2654 22.3945 12.3364 22.1917 12.3574 21.9808C12.3784 21.7699 12.349 21.557 12.2714 21.3598C12.1939 21.1625 12.0705 20.9865 11.9115 20.8464C11.1916 20.2072 10.5778 19.4578 10.093 18.626L9.80591 18.1475L10.9353 17.4967L20.7309 15.0035C21.0657 14.9255 21.3776 14.7702 21.6416 14.55C21.9055 14.3297 22.1143 14.0508 22.251 13.7354C22.3878 13.42 22.4488 13.077 22.4291 12.7337C22.4095 12.3905 22.3097 12.0567 22.1378 11.759L17.2711 3.26018ZM4.59942 19.6214C4.44154 19.5792 4.29351 19.5064 4.16378 19.4071C4.03405 19.3077 3.92516 19.1838 3.84333 19.0423L2.12538 16.0611C1.99909 15.8427 1.94243 15.5911 1.96295 15.3397C1.98347 15.0883 2.0802 14.8491 2.24023 14.6542L3.62799 17.0468C3.69145 17.1573 3.79617 17.238 3.91912 17.2712C4.04206 17.3044 4.17317 17.2874 4.28358 17.2239C4.394 17.1604 4.47469 17.0557 4.50789 16.9328C4.5411 16.8098 4.5241 16.6787 4.46064 16.5683L3.02503 14.0895L7.15003 11.6968L8.65742 14.2905L10.1409 16.8554L8.93497 17.5397L5.99196 19.2386L5.56607 18.4968C5.50261 18.3864 5.39789 18.3057 5.27494 18.2725C5.15199 18.2393 5.02089 18.2563 4.91047 18.3198C4.80005 18.3832 4.71937 18.4879 4.68616 18.6109C4.65296 18.7338 4.66995 18.8649 4.73341 18.9754L5.12103 19.6453C4.94751 19.6757 4.76943 19.6675 4.59942 19.6214ZM9.2843 19.1046C9.81389 20.027 10.4912 20.8563 11.2894 21.5595C11.3344 21.6 11.3691 21.6506 11.3907 21.7072C11.4124 21.7638 11.4203 21.8246 11.4138 21.8849C11.4086 21.945 11.3889 22.0029 11.3564 22.0538C11.3239 22.1046 11.2796 22.1468 11.2272 22.1768L9.81548 22.9903C9.74659 23.0321 9.66602 23.0505 9.5858 23.0428C9.50558 23.035 9.43003 23.0015 9.37044 22.9472L8.94454 22.5644C8.22426 21.9287 7.61177 21.1804 7.13088 20.3488L6.84376 19.8702L7.61899 19.4252L8.99718 18.626L9.2843 19.1046ZM21.3913 13.3382C21.3146 13.5169 21.1965 13.6747 21.0467 13.7987C20.8969 13.9227 20.7198 14.0092 20.5299 14.0512L11.007 16.4774L7.91569 11.1226L14.3999 3.5808C14.5267 3.42402 14.6897 3.30042 14.8749 3.22064C15.0602 3.14086 15.262 3.10729 15.463 3.12283C15.6641 3.13837 15.8584 3.20255 16.0291 3.30984C16.1999 3.41713 16.342 3.56431 16.4432 3.73872L21.3291 12.2184C21.426 12.3873 21.4821 12.5765 21.493 12.7709C21.5038 12.9653 21.4689 13.1596 21.3913 13.3382ZM21.0994 6.49509C21.1307 6.54993 21.1725 6.59804 21.2224 6.63665C21.2723 6.67526 21.3294 6.70361 21.3903 6.72006C21.4513 6.73652 21.5149 6.74076 21.5775 6.73254C21.64 6.72432 21.7004 6.70379 21.755 6.67215L24.0615 5.33703C24.172 5.27357 24.2526 5.16885 24.2859 5.04591C24.3191 4.92296 24.3021 4.79185 24.2386 4.68144C24.2072 4.62676 24.1653 4.57881 24.1153 4.54033C24.0654 4.50184 24.0084 4.47357 23.9475 4.45713C23.8245 4.42392 23.6934 4.44092 23.583 4.50438L21.2956 5.82514C21.2372 5.85468 21.1855 5.89588 21.1437 5.94619C21.1019 5.99649 21.0708 6.05484 21.0524 6.11763C21.034 6.18042 21.0287 6.24631 21.0368 6.31123C21.0449 6.37615 21.0662 6.43873 21.0994 6.49509ZM20.1423 4.52352C20.1837 4.52822 20.2254 4.52822 20.2667 4.52352C20.3748 4.52722 20.4809 4.49423 20.5678 4.42993C20.6547 4.36563 20.7172 4.2738 20.7453 4.1694L21.4248 1.6188C21.4436 1.55739 21.4499 1.49283 21.4432 1.42895C21.4366 1.36507 21.4171 1.30319 21.3861 1.24699C21.355 1.19078 21.3129 1.14141 21.2624 1.10181C21.2118 1.0622 21.1538 1.03318 21.0918 1.01648C21.0298 0.999769 20.965 0.995715 20.9014 1.00456C20.8378 1.0134 20.7766 1.03495 20.7215 1.06793C20.6664 1.10092 20.6185 1.14466 20.5807 1.19655C20.5428 1.24843 20.5158 1.30741 20.5012 1.36996L19.8169 3.92056C19.7979 3.9815 19.7912 4.04564 19.7973 4.10919C19.8034 4.17275 19.8222 4.23444 19.8525 4.29063C19.8829 4.34682 19.9241 4.39637 19.9739 4.43637C20.0237 4.47636 20.0809 4.506 20.1423 4.52352ZM25.5307 8.76336L22.98 8.07905C22.9191 8.06271 22.8555 8.05854 22.7929 8.06677C22.7304 8.07501 22.67 8.09548 22.6154 8.12703C22.5607 8.15858 22.5128 8.20059 22.4744 8.25065C22.436 8.30072 22.4078 8.35786 22.3914 8.41882C22.3751 8.47977 22.3709 8.54335 22.3792 8.60592C22.3874 8.66849 22.4079 8.72883 22.4394 8.78348C22.471 8.83814 22.513 8.88605 22.563 8.92447C22.6131 8.96289 22.6703 8.99108 22.7312 9.00742L25.2818 9.68694C25.323 9.69356 25.365 9.69356 25.4062 9.68694C25.5331 9.70344 25.6614 9.66884 25.7628 9.59077C25.8642 9.51269 25.9305 9.39753 25.947 9.27061C25.9635 9.14369 25.9289 9.01542 25.8508 8.91401C25.7727 8.8126 25.6576 8.74636 25.5307 8.72986V8.76336Z"/>
</mask>
<path d="M17.2711 3.26018C17.0923 2.9516 16.8413 2.69107 16.5395 2.50101C16.2377 2.31095 15.8943 2.19705 15.5388 2.16911C15.1846 2.13868 14.8283 2.19562 14.5013 2.33496C14.1742 2.47429 13.8863 2.69176 13.6629 2.96827L7.02082 10.6967L2.10145 13.5344C1.59746 13.827 1.22942 14.3069 1.07738 14.8695C1.00077 15.1485 0.980783 15.44 1.01859 15.7268C1.05639 16.0136 1.15123 16.29 1.29751 16.5396L3.01546 19.5209C3.30813 20.0249 3.78796 20.3929 4.35058 20.545C4.53767 20.5962 4.73084 20.622 4.92483 20.6215C5.30768 20.6205 5.68369 20.5199 6.01589 20.3296L6.30301 20.8082C6.83534 21.7287 7.51235 22.5576 8.30809 23.2631L8.73877 23.6459C8.97777 23.8667 9.28919 23.9926 9.61449 24C9.84942 24.0003 10.0803 23.9393 10.2844 23.8229L11.6961 23.0046C11.8797 22.8987 12.0354 22.7506 12.1504 22.5726C12.2654 22.3945 12.3364 22.1917 12.3574 21.9808C12.3784 21.7699 12.349 21.557 12.2714 21.3598C12.1939 21.1625 12.0705 20.9865 11.9115 20.8464C11.1916 20.2072 10.5778 19.4578 10.093 18.626L9.80591 18.1475L10.9353 17.4967L20.7309 15.0035C21.0657 14.9255 21.3776 14.7702 21.6416 14.55C21.9055 14.3297 22.1143 14.0508 22.251 13.7354C22.3878 13.42 22.4488 13.077 22.4291 12.7337C22.4095 12.3905 22.3097 12.0567 22.1378 11.759L17.2711 3.26018ZM4.59942 19.6214C4.44154 19.5792 4.29351 19.5064 4.16378 19.4071C4.03405 19.3077 3.92516 19.1838 3.84333 19.0423L2.12538 16.0611C1.99909 15.8427 1.94243 15.5911 1.96295 15.3397C1.98347 15.0883 2.0802 14.8491 2.24023 14.6542L3.62799 17.0468C3.69145 17.1573 3.79617 17.238 3.91912 17.2712C4.04206 17.3044 4.17317 17.2874 4.28358 17.2239C4.394 17.1604 4.47469 17.0557 4.50789 16.9328C4.5411 16.8098 4.5241 16.6787 4.46064 16.5683L3.02503 14.0895L7.15003 11.6968L8.65742 14.2905L10.1409 16.8554L8.93497 17.5397L5.99196 19.2386L5.56607 18.4968C5.50261 18.3864 5.39789 18.3057 5.27494 18.2725C5.15199 18.2393 5.02089 18.2563 4.91047 18.3198C4.80005 18.3832 4.71937 18.4879 4.68616 18.6109C4.65296 18.7338 4.66995 18.8649 4.73341 18.9754L5.12103 19.6453C4.94751 19.6757 4.76943 19.6675 4.59942 19.6214ZM9.2843 19.1046C9.81389 20.027 10.4912 20.8563 11.2894 21.5595C11.3344 21.6 11.3691 21.6506 11.3907 21.7072C11.4124 21.7638 11.4203 21.8246 11.4138 21.8849C11.4086 21.945 11.3889 22.0029 11.3564 22.0538C11.3239 22.1046 11.2796 22.1468 11.2272 22.1768L9.81548 22.9903C9.74659 23.0321 9.66602 23.0505 9.5858 23.0428C9.50558 23.035 9.43003 23.0015 9.37044 22.9472L8.94454 22.5644C8.22426 21.9287 7.61177 21.1804 7.13088 20.3488L6.84376 19.8702L7.61899 19.4252L8.99718 18.626L9.2843 19.1046ZM21.3913 13.3382C21.3146 13.5169 21.1965 13.6747 21.0467 13.7987C20.8969 13.9227 20.7198 14.0092 20.5299 14.0512L11.007 16.4774L7.91569 11.1226L14.3999 3.5808C14.5267 3.42402 14.6897 3.30042 14.8749 3.22064C15.0602 3.14086 15.262 3.10729 15.463 3.12283C15.6641 3.13837 15.8584 3.20255 16.0291 3.30984C16.1999 3.41713 16.342 3.56431 16.4432 3.73872L21.3291 12.2184C21.426 12.3873 21.4821 12.5765 21.493 12.7709C21.5038 12.9653 21.4689 13.1596 21.3913 13.3382ZM21.0994 6.49509C21.1307 6.54993 21.1725 6.59804 21.2224 6.63665C21.2723 6.67526 21.3294 6.70361 21.3903 6.72006C21.4513 6.73652 21.5149 6.74076 21.5775 6.73254C21.64 6.72432 21.7004 6.70379 21.755 6.67215L24.0615 5.33703C24.172 5.27357 24.2526 5.16885 24.2859 5.04591C24.3191 4.92296 24.3021 4.79185 24.2386 4.68144C24.2072 4.62676 24.1653 4.57881 24.1153 4.54033C24.0654 4.50184 24.0084 4.47357 23.9475 4.45713C23.8245 4.42392 23.6934 4.44092 23.583 4.50438L21.2956 5.82514C21.2372 5.85468 21.1855 5.89588 21.1437 5.94619C21.1019 5.99649 21.0708 6.05484 21.0524 6.11763C21.034 6.18042 21.0287 6.24631 21.0368 6.31123C21.0449 6.37615 21.0662 6.43873 21.0994 6.49509ZM20.1423 4.52352C20.1837 4.52822 20.2254 4.52822 20.2667 4.52352C20.3748 4.52722 20.4809 4.49423 20.5678 4.42993C20.6547 4.36563 20.7172 4.2738 20.7453 4.1694L21.4248 1.6188C21.4436 1.55739 21.4499 1.49283 21.4432 1.42895C21.4366 1.36507 21.4171 1.30319 21.3861 1.24699C21.355 1.19078 21.3129 1.14141 21.2624 1.10181C21.2118 1.0622 21.1538 1.03318 21.0918 1.01648C21.0298 0.999769 20.965 0.995715 20.9014 1.00456C20.8378 1.0134 20.7766 1.03495 20.7215 1.06793C20.6664 1.10092 20.6185 1.14466 20.5807 1.19655C20.5428 1.24843 20.5158 1.30741 20.5012 1.36996L19.8169 3.92056C19.7979 3.9815 19.7912 4.04564 19.7973 4.10919C19.8034 4.17275 19.8222 4.23444 19.8525 4.29063C19.8829 4.34682 19.9241 4.39637 19.9739 4.43637C20.0237 4.47636 20.0809 4.506 20.1423 4.52352ZM25.5307 8.76336L22.98 8.07905C22.9191 8.06271 22.8555 8.05854 22.7929 8.06677C22.7304 8.07501 22.67 8.09548 22.6154 8.12703C22.5607 8.15858 22.5128 8.20059 22.4744 8.25065C22.436 8.30072 22.4078 8.35786 22.3914 8.41882C22.3751 8.47977 22.3709 8.54335 22.3792 8.60592C22.3874 8.66849 22.4079 8.72883 22.4394 8.78348C22.471 8.83814 22.513 8.88605 22.563 8.92447C22.6131 8.96289 22.6703 8.99108 22.7312 9.00742L25.2818 9.68694C25.323 9.69356 25.365 9.69356 25.4062 9.68694C25.5331 9.70344 25.6614 9.66884 25.7628 9.59077C25.8642 9.51269 25.9305 9.39753 25.947 9.27061C25.9635 9.14369 25.9289 9.01542 25.8508 8.91401C25.7727 8.8126 25.6576 8.74636 25.5307 8.72986V8.76336Z" fill="#04B4DD"/>
<path d="M17.2711 3.26018C17.0923 2.9516 16.8413 2.69107 16.5395 2.50101C16.2377 2.31095 15.8943 2.19705 15.5388 2.16911C15.1846 2.13868 14.8283 2.19562 14.5013 2.33496C14.1742 2.47429 13.8863 2.69176 13.6629 2.96827L7.02082 10.6967L2.10145 13.5344C1.59746 13.827 1.22942 14.3069 1.07738 14.8695C1.00077 15.1485 0.980783 15.44 1.01859 15.7268C1.05639 16.0136 1.15123 16.29 1.29751 16.5396L3.01546 19.5209C3.30813 20.0249 3.78796 20.3929 4.35058 20.545C4.53767 20.5962 4.73084 20.622 4.92483 20.6215C5.30768 20.6205 5.68369 20.5199 6.01589 20.3296L6.30301 20.8082C6.83534 21.7287 7.51235 22.5576 8.30809 23.2631L8.73877 23.6459C8.97777 23.8667 9.28919 23.9926 9.61449 24C9.84942 24.0003 10.0803 23.9393 10.2844 23.8229L11.6961 23.0046C11.8797 22.8987 12.0354 22.7506 12.1504 22.5726C12.2654 22.3945 12.3364 22.1917 12.3574 21.9808C12.3784 21.7699 12.349 21.557 12.2714 21.3598C12.1939 21.1625 12.0705 20.9865 11.9115 20.8464C11.1916 20.2072 10.5778 19.4578 10.093 18.626L9.80591 18.1475L10.9353 17.4967L20.7309 15.0035C21.0657 14.9255 21.3776 14.7702 21.6416 14.55C21.9055 14.3297 22.1143 14.0508 22.251 13.7354C22.3878 13.42 22.4488 13.077 22.4291 12.7337C22.4095 12.3905 22.3097 12.0567 22.1378 11.759L17.2711 3.26018ZM4.59942 19.6214C4.44154 19.5792 4.29351 19.5064 4.16378 19.4071C4.03405 19.3077 3.92516 19.1838 3.84333 19.0423L2.12538 16.0611C1.99909 15.8427 1.94243 15.5911 1.96295 15.3397C1.98347 15.0883 2.0802 14.8491 2.24023 14.6542L3.62799 17.0468C3.69145 17.1573 3.79617 17.238 3.91912 17.2712C4.04206 17.3044 4.17317 17.2874 4.28358 17.2239C4.394 17.1604 4.47469 17.0557 4.50789 16.9328C4.5411 16.8098 4.5241 16.6787 4.46064 16.5683L3.02503 14.0895L7.15003 11.6968L8.65742 14.2905L10.1409 16.8554L8.93497 17.5397L5.99196 19.2386L5.56607 18.4968C5.50261 18.3864 5.39789 18.3057 5.27494 18.2725C5.15199 18.2393 5.02089 18.2563 4.91047 18.3198C4.80005 18.3832 4.71937 18.4879 4.68616 18.6109C4.65296 18.7338 4.66995 18.8649 4.73341 18.9754L5.12103 19.6453C4.94751 19.6757 4.76943 19.6675 4.59942 19.6214ZM9.2843 19.1046C9.81389 20.027 10.4912 20.8563 11.2894 21.5595C11.3344 21.6 11.3691 21.6506 11.3907 21.7072C11.4124 21.7638 11.4203 21.8246 11.4138 21.8849C11.4086 21.945 11.3889 22.0029 11.3564 22.0538C11.3239 22.1046 11.2796 22.1468 11.2272 22.1768L9.81548 22.9903C9.74659 23.0321 9.66602 23.0505 9.5858 23.0428C9.50558 23.035 9.43003 23.0015 9.37044 22.9472L8.94454 22.5644C8.22426 21.9287 7.61177 21.1804 7.13088 20.3488L6.84376 19.8702L7.61899 19.4252L8.99718 18.626L9.2843 19.1046ZM21.3913 13.3382C21.3146 13.5169 21.1965 13.6747 21.0467 13.7987C20.8969 13.9227 20.7198 14.0092 20.5299 14.0512L11.007 16.4774L7.91569 11.1226L14.3999 3.5808C14.5267 3.42402 14.6897 3.30042 14.8749 3.22064C15.0602 3.14086 15.262 3.10729 15.463 3.12283C15.6641 3.13837 15.8584 3.20255 16.0291 3.30984C16.1999 3.41713 16.342 3.56431 16.4432 3.73872L21.3291 12.2184C21.426 12.3873 21.4821 12.5765 21.493 12.7709C21.5038 12.9653 21.4689 13.1596 21.3913 13.3382ZM21.0994 6.49509C21.1307 6.54993 21.1725 6.59804 21.2224 6.63665C21.2723 6.67526 21.3294 6.70361 21.3903 6.72006C21.4513 6.73652 21.5149 6.74076 21.5775 6.73254C21.64 6.72432 21.7004 6.70379 21.755 6.67215L24.0615 5.33703C24.172 5.27357 24.2526 5.16885 24.2859 5.04591C24.3191 4.92296 24.3021 4.79185 24.2386 4.68144C24.2072 4.62676 24.1653 4.57881 24.1153 4.54033C24.0654 4.50184 24.0084 4.47357 23.9475 4.45713C23.8245 4.42392 23.6934 4.44092 23.583 4.50438L21.2956 5.82514C21.2372 5.85468 21.1855 5.89588 21.1437 5.94619C21.1019 5.99649 21.0708 6.05484 21.0524 6.11763C21.034 6.18042 21.0287 6.24631 21.0368 6.31123C21.0449 6.37615 21.0662 6.43873 21.0994 6.49509ZM20.1423 4.52352C20.1837 4.52822 20.2254 4.52822 20.2667 4.52352C20.3748 4.52722 20.4809 4.49423 20.5678 4.42993C20.6547 4.36563 20.7172 4.2738 20.7453 4.1694L21.4248 1.6188C21.4436 1.55739 21.4499 1.49283 21.4432 1.42895C21.4366 1.36507 21.4171 1.30319 21.3861 1.24699C21.355 1.19078 21.3129 1.14141 21.2624 1.10181C21.2118 1.0622 21.1538 1.03318 21.0918 1.01648C21.0298 0.999769 20.965 0.995715 20.9014 1.00456C20.8378 1.0134 20.7766 1.03495 20.7215 1.06793C20.6664 1.10092 20.6185 1.14466 20.5807 1.19655C20.5428 1.24843 20.5158 1.30741 20.5012 1.36996L19.8169 3.92056C19.7979 3.9815 19.7912 4.04564 19.7973 4.10919C19.8034 4.17275 19.8222 4.23444 19.8525 4.29063C19.8829 4.34682 19.9241 4.39637 19.9739 4.43637C20.0237 4.47636 20.0809 4.506 20.1423 4.52352ZM25.5307 8.76336L22.98 8.07905C22.9191 8.06271 22.8555 8.05854 22.7929 8.06677C22.7304 8.07501 22.67 8.09548 22.6154 8.12703C22.5607 8.15858 22.5128 8.20059 22.4744 8.25065C22.436 8.30072 22.4078 8.35786 22.3914 8.41882C22.3751 8.47977 22.3709 8.54335 22.3792 8.60592C22.3874 8.66849 22.4079 8.72883 22.4394 8.78348C22.471 8.83814 22.513 8.88605 22.563 8.92447C22.6131 8.96289 22.6703 8.99108 22.7312 9.00742L25.2818 9.68694C25.323 9.69356 25.365 9.69356 25.4062 9.68694C25.5331 9.70344 25.6614 9.66884 25.7628 9.59077C25.8642 9.51269 25.9305 9.39753 25.947 9.27061C25.9635 9.14369 25.9289 9.01542 25.8508 8.91401C25.7727 8.8126 25.6576 8.74636 25.5307 8.72986V8.76336Z" stroke="current" stroke-width="0.6" mask="url(#path-1-outside-1_1_391)"/>
</svg>
