<svg width="56" height="55" viewBox="0 0 56 55" fill="none" xmlns="http://www.w3.org/2000/svg">
<path d="M0.965385 34.4919C0.45082 34.4919 0.0332031 34.0743 0.0332031 33.5597V3.72989C0.0332031 2.18807 1.28792 0.93335 2.82975 0.93335H53.1675C54.7094 0.93335 55.9641 2.18807 55.9641 3.72989V6.52644C55.9641 7.041 55.5465 7.45862 55.0319 7.45862C54.5173 7.45862 54.0997 7.041 54.0997 6.52644V3.72989C54.0997 3.21719 53.6802 2.79771 53.1675 2.79771H2.82975C2.31705 2.79771 1.89757 3.21719 1.89757 3.72989V33.5597C1.89757 34.0743 1.47995 34.4919 0.965385 34.4919ZM27.9986 54.9999H17.7446C17.2301 54.9999 16.8125 54.5823 16.8125 54.0677C16.8125 53.5531 17.2301 53.1355 17.7446 53.1355H19.609C21.1508 53.1355 22.4056 51.8808 22.4056 50.339V45.6781C22.4056 45.1635 22.8232 44.7459 23.3377 44.7459C23.8523 44.7459 24.2699 45.1635 24.2699 45.6781V50.339C24.2699 51.3886 23.9213 52.3562 23.3359 53.1355H27.9986C28.5132 53.1355 28.9308 53.5531 28.9308 54.0677C28.9308 54.5823 28.5132 54.9999 27.9986 54.9999Z" fill="white"/>
<path d="M27.0665 45.6782H2.82975C1.28792 45.6782 0.0332031 44.4235 0.0332031 42.8817V37.2886C0.0332031 36.774 0.45082 36.3564 0.965385 36.3564H27.0665C27.581 36.3564 27.9986 36.774 27.9986 37.2886C27.9986 37.8032 27.581 38.2208 27.0665 38.2208H1.89757V42.8817C1.89757 43.3944 2.31705 43.8139 2.82975 43.8139H27.0665C27.581 43.8139 27.9986 44.2315 27.9986 44.746C27.9986 45.2606 27.581 45.6782 27.0665 45.6782Z" fill="white"/>
<path d="M38.2515 13.984H47.5733C48.0879 13.984 48.5055 13.5664 48.5055 13.0519C48.5055 12.5373 48.0879 12.1197 47.5733 12.1197H38.2515C37.737 12.1197 37.3193 12.5373 37.3193 13.0519C37.3193 13.5664 37.737 13.984 38.2515 13.984ZM41.9802 51.2713H43.8446C44.3592 51.2713 44.7768 50.8537 44.7768 50.3391C44.7768 49.8246 44.3592 49.4069 43.8446 49.4069H41.9802C41.4657 49.4069 41.0481 49.8246 41.0481 50.3391C41.0481 50.8537 41.4657 51.2713 41.9802 51.2713Z" fill="white"/>
<path d="M51.3015 55H34.5222C31.9513 55 29.8613 52.91 29.8613 50.3391V13.0518C29.8613 10.4809 31.9513 8.3909 34.5222 8.3909H51.3015C53.8725 8.3909 55.9624 10.4809 55.9624 13.0518V50.3391C55.9624 52.91 53.8725 55 51.3015 55ZM34.5222 10.2553C32.9804 10.2553 31.7257 11.51 31.7257 13.0518V50.3391C31.7257 51.8809 32.9804 53.1356 34.5222 53.1356H51.3015C52.8433 53.1356 54.098 51.8809 54.098 50.3391V13.0518C54.098 11.51 52.8433 10.2553 51.3015 10.2553H34.5222Z" fill="white"/>
</svg>
