<svg width="53" height="53" viewBox="0 0 53 53" fill="none" xmlns="http://www.w3.org/2000/svg">
<path d="M0 10.2621L15.5919 0L26.5 9.17894L10.7789 18.9608L0 10.2621Z" fill="#1E88E5"/>
<path d="M37.4081 0L53 10.2588L42.2178 18.9608L26.5 9.17894L37.4081 0Z" fill="#1E88E5"/>
<path d="M26.5 28.7458L37.4081 37.9248L53 27.6626L42.2211 18.9607L26.5 28.7458L10.7822 18.9607L0 27.6626L15.5919 37.9248L26.5 28.7458Z" fill="#1E88E5"/>
<path d="M14.8036 41.37C15.1006 41.5677 15.4539 41.6633 15.8101 41.6424C16.1663 41.6214 16.506 41.4852 16.7778 41.2541L26.5 33.0722L36.2222 41.2541C36.4958 41.483 36.8357 41.6178 37.1918 41.6387C37.5479 41.6595 37.9013 41.5654 38.1998 41.37L43.0625 38.1701V43.0627L26.4669 53.0002L9.9375 43.0627V38.1668L14.8036 41.37Z" fill="#1E88E5"/>
</svg>
