<svg width="50" height="50" version="1.1" xmlns="http://www.w3.org/2000/svg"><path fill="rgb(64,152,150)" stroke="rgb(64,152,150)" stroke-width="1" opacity="0.5529411764705883" d="M 46.5 15 L 45.5 17 L 46.5 15 Z "></path><path fill="rgb(64,152,150)" stroke="rgb(64,152,150)" stroke-width="1" opacity="0.5529411764705883" d="M 30.5 27 L 29.5 29 L 30.5 27 Z "></path><path fill="rgb(0,1,0)" stroke="rgb(0,1,0)" stroke-width="1" opacity="0.00392156862745098" d="M 16 1 L 18.5 2 L 21 1 L 20.5 6 L 20 3 L 15.5 4 L 14.5 2 L 16 2.5 L 16 1 Z "></path><path fill="rgb(0,1,0)" stroke="rgb(0,1,0)" stroke-width="1" opacity="0.00392156862745098" d="M 31.5 1 L 32 3 L 30 2.5 L 31.5 1 Z "></path><path fill="rgb(0,1,0)" stroke="rgb(0,1,0)" stroke-width="1" opacity="0.00392156862745098" d="M 9.5 2 L 13 3.5 L 10.5 4 L 9.5 2 Z "></path><path fill="rgb(0,1,0)" stroke="rgb(0,1,0)" stroke-width="1" opacity="0.00392156862745098" d="M 20.5 7 L 21 14.5 L 20 14.5 L 20.5 7 Z "></path><path fill="rgb(0,1,0)" stroke="rgb(0,1,0)" stroke-width="1" opacity="0.00392156862745098" d="M 48.5 14 L 49 16.5 L 46 18.5 L 48.5 14 Z "></path><path fill="rgb(0,1,0)" stroke="rgb(0,1,0)" stroke-width="1" opacity="0.00392156862745098" d="M 1.5 16 Q 3.8 15.3 3 17.5 L 3.5 19 Q 1.3 19.8 2 17.5 L 1.5 16 Z "></path><path fill="rgb(0,1,0)" stroke="rgb(0,1,0)" stroke-width="1" opacity="0.00392156862745098" d="M 2.5 20 Q 4.8 19.3 4 21.5 L 2.5 20 Z "></path><path fill="rgb(0,1,0)" stroke="rgb(0,1,0)" stroke-width="1" opacity="0.00392156862745098" d="M 5.5 20 L 8 21.5 L 5 22 L 5.5 20 Z "></path><path fill="rgb(0,1,0)" stroke="rgb(0,1,0)" stroke-width="1" opacity="0.00392156862745098" d="M 2.5 23 Q 5.5 24.5 2.5 26 L 2.5 23 Z "></path><path fill="rgb(0,1,0)" stroke="rgb(0,1,0)" stroke-width="1" opacity="0.00392156862745098" d="M 5 24 L 9 24.5 L 5.5 26 L 5 24 Z "></path><path fill="rgb(0,1,0)" stroke="rgb(0,1,0)" stroke-width="1" opacity="0.00392156862745098" d="M 2.5 27 L 6 27.5 L 2.5 28 L 2.5 27 Z "></path><path fill="rgb(0,1,0)" stroke="rgb(0,1,0)" stroke-width="1" opacity="0.00392156862745098" d="M 13.5 28 L 14 30.5 L 13 30.5 L 13.5 28 Z "></path><path fill="rgb(0,1,0)" stroke="rgb(0,1,0)" stroke-width="1" opacity="0.00392156862745098" d="M 5.5 29 L 7.5 29 Q 10.1 28.3 9 31 L 2 30.5 L 5.5 29 Z "></path><path fill="rgb(0,1,0)" stroke="rgb(0,1,0)" stroke-width="1" opacity="0.00392156862745098" d="M 18.5 37 L 19 48.5 L 18 48.5 L 18.5 37 Z "></path><path fill="rgb(0,1,0)" stroke="rgb(0,1,0)" stroke-width="1" opacity="0.00392156862745098" d="M 4.5 43 L 7 44 L 6.5 46 L 4.5 43 Z "></path><path fill="rgb(0,1,0)" stroke="rgb(0,1,0)" stroke-width="1" opacity="0.00392156862745098" d="M 46.5 43 L 45.5 45 L 44 44.5 L 46.5 43 Z "></path><path fill="rgb(0,0,0)" stroke="rgb(0,0,0)" stroke-width="1" opacity="0" d="M 0 0 L 23 0.5 L 22 1.5 L 22 15.5 L 21 16.5 L 22.5 17 L 28 16 L 28 0 L 50 0 L 50 50 L 30 50 L 30 28.5 L 31.5 28 L 47 17 Q 48.5 13.3 45.5 14 L 39.5 10 L 24.5 20 L 11.5 10 L 9.5 10 L 3 14 L 6.5 19 L 20 28.5 L 20 50 L 0 50 L 0 0 Z M 16 1 L 16 3 L 20 4 L 20 14 Q 18 15 21 16 L 21 1 L 19 2 L 16 1 Z M 30 1 L 30 16 L 32 15 L 30 14 L 30 4 L 32 3 L 32 2 L 30 1 Z M 10 8 L 10 9 L 12 9 L 10 8 Z M 39 8 L 38 10 L 40 9 L 42 10 L 43 10 Q 42 7 39 8 Z M 14 10 L 15 12 L 16 12 L 14 10 Z M 33 11 L 33 13 L 36 12 L 33 11 Z M 45 11 L 46 13 L 47 13 L 45 11 Z M 49 14 L 48 17 L 49 17 L 49 14 Z M 2 15 L 2 19 L 5 19 L 3 18 L 2 15 Z M 24 17 L 25 19 L 28 18 L 24 17 Z M 6 19 L 5 22 L 9 22 L 6 19 Z M 3 20 L 4 22 Q 5 19 3 20 Z M 3 23 L 3 26 Q 6 25 3 23 Z M 5 24 L 6 26 L 9 25 L 5 24 Z M 14 25 L 15 27 L 16 27 L 14 25 Z M 35 26 L 34 28 L 36 27 L 35 26 Z M 3 27 L 3 28 L 6 28 L 3 27 Z M 14 28 L 13 30 L 13 31 L 15 30 Q 17 31 16 29 L 14 28 Z M 18 28 L 18 30 L 17 32 L 18 34 L 19 34 Q 20 27 18 28 Z M 6 29 L 2 31 L 9 31 Q 10 28 8 29 L 6 29 Z M 32 29 L 32 49 L 32 38 L 32 36 L 33 33 L 32 29 Z M 15 31 L 3 40 L 6 43 L 8 43 L 17 36 L 18 37 L 18 49 L 19 49 L 19 36 L 16 33 Q 17 30 15 31 Z M 36 31 Q 33 32 33 36 L 45 43 L 47 40 L 36 31 Z M 39 31 L 40 33 L 41 33 L 39 31 Z M 10 32 L 9 34 L 11 33 L 10 32 Z M 6 44 Q 6 48 8 45 L 6 44 Z M 43 44 L 43 45 L 46 45 L 43 44 Z "></path><path fill="rgb(64,153,151)" stroke="rgb(64,153,151)" stroke-width="1" opacity="0.396078431372549" d="M 4.5 14 L 4.5 17 Q 1.5 15.5 4.5 14 Z "></path><path fill="rgb(64,153,151)" stroke="rgb(64,153,151)" stroke-width="1" opacity="0.396078431372549" d="M 29.5 29 L 30 48.5 L 29 48.5 L 29.5 29 Z "></path><path fill="rgb(63,152,150)" stroke="rgb(63,152,150)" stroke-width="1" opacity="0.9686274509803922" d="M 9.5 11 L 10.5 13 L 9.5 11 Z "></path><path fill="rgb(63,152,150)" stroke="rgb(63,152,150)" stroke-width="1" opacity="0.9686274509803922" d="M 5.5 14 Q 8.5 15.5 5.5 17 L 5.5 14 Z "></path><path fill="rgb(63,152,150)" stroke="rgb(63,152,150)" stroke-width="1" opacity="0.9686274509803922" d="M 20.5 27 L 22 28.5 L 22 48 L 29 48.5 L 22.5 49 L 21 47.5 L 21 28.5 L 20.5 27 Z "></path><path fill="rgb(64,152,150)" stroke="rgb(64,152,150)" stroke-width="1" opacity="0.996078431372549" d="M 10.5 11 L 25.5 22 L 40.5 11 L 46 15.5 L 29 28.5 L 29 48 L 22 48 L 22 28.5 L 20.5 27 L 4 15.5 L 10.5 11 Z "></path><path fill="rgb(72,157,154)" stroke="rgb(72,157,154)" stroke-width="1" opacity="0.050980392156862744" d="M 5.5 11 L 6.5 13 L 5.5 11 Z "></path><path fill="rgb(72,157,154)" stroke="rgb(72,157,154)" stroke-width="1" opacity="0.050980392156862744" d="M 31.5 27 Q 34.3 28.3 32 29.5 L 31.5 32 L 31 29.5 L 31.5 27 Z "></path><path fill="rgb(72,157,154)" stroke="rgb(72,157,154)" stroke-width="1" opacity="0.050980392156862744" d="M 20.5 29 L 21 49 L 30 49.5 L 21.5 50 L 20 48.5 L 20.5 29 Z "></path><path fill="rgb(176,18,47)" stroke="rgb(176,18,47)" stroke-width="1" opacity="0.01568627450980392" d="M 23.5 0 Q 27.3 -0.8 28 1.5 L 26.5 1 L 23 1.5 L 23 15 L 28 15.5 L 22 16 L 22 1.5 L 23.5 0 Z "></path><path fill="rgb(176,18,47)" stroke="rgb(176,18,47)" stroke-width="1" opacity="0.01568627450980392" d="M 29.5 1 L 30 14.5 L 29 14.5 L 29.5 1 Z "></path><path fill="rgb(176,18,47)" stroke="rgb(176,18,47)" stroke-width="1" opacity="0.01568627450980392" d="M 24.5 17 L 27 17.5 L 24.5 18 L 24.5 17 Z "></path><path fill="rgb(176,18,47)" stroke="rgb(176,18,47)" stroke-width="1" opacity="0.01568627450980392" d="M 14.5 29 L 18 31.5 L 15 31.5 L 15.5 30 L 14.5 29 Z "></path><path fill="rgb(176,18,47)" stroke="rgb(176,18,47)" stroke-width="1" opacity="0.01568627450980392" d="M 35.5 29 L 39 31.5 Q 37.5 34.5 36 31.5 L 36.5 30 L 35.5 29 Z "></path><path fill="rgb(176,18,47)" stroke="rgb(176,18,47)" stroke-width="1" opacity="0.01568627450980392" d="M 12.5 30 L 13 32.5 L 11.5 34 Q 8 32 12.5 30 Z "></path><path fill="rgb(176,18,47)" stroke="rgb(176,18,47)" stroke-width="1" opacity="0.01568627450980392" d="M 32.5 32 L 33.5 34 L 32.5 32 Z "></path><path fill="rgb(176,18,47)" stroke="rgb(176,18,47)" stroke-width="1" opacity="0.01568627450980392" d="M 40.5 32 Q 45 34 41.5 36 L 40 34.5 L 40.5 32 Z "></path><path fill="rgb(176,18,47)" stroke="rgb(176,18,47)" stroke-width="1" opacity="0.01568627450980392" d="M 8.5 33 L 9 35.5 L 7.5 37 Q 4 35 8.5 33 Z "></path><path fill="rgb(176,18,47)" stroke="rgb(176,18,47)" stroke-width="1" opacity="0.01568627450980392" d="M 18.5 33 L 18 34.5 L 17.5 36 L 17 34.5 L 18.5 33 Z "></path><path fill="rgb(176,18,47)" stroke="rgb(176,18,47)" stroke-width="1" opacity="0.01568627450980392" d="M 33.5 35 L 34.5 38 L 36.5 39 Q 37.8 36.8 39 39.5 Q 37.3 42.8 35.5 39 L 32 36.5 L 33.5 35 Z "></path><path fill="rgb(176,18,47)" stroke="rgb(176,18,47)" stroke-width="1" opacity="0.01568627450980392" d="M 44.5 35 L 49 40.5 L 46 42.5 L 46.5 40 L 48 40.5 L 45.5 37 L 44 37.5 L 44.5 35 Z "></path><path fill="rgb(176,18,47)" stroke="rgb(176,18,47)" stroke-width="1" opacity="0.01568627450980392" d="M 4.5 36 L 4 39.5 L 6 42.5 L 3.5 43 L 2 41.5 L 3 39.5 L 1 39.5 L 4.5 36 Z "></path><path fill="rgb(176,18,47)" stroke="rgb(176,18,47)" stroke-width="1" opacity="0.01568627450980392" d="M 15.5 36 Q 19 38 14.5 40 L 7.5 45 L 7 42.5 L 8.5 41 L 10.5 42 L 11.5 39 L 13.5 39 L 15 38.5 Q 12.8 37.3 15.5 36 Z "></path><path fill="rgb(176,18,47)" stroke="rgb(176,18,47)" stroke-width="1" opacity="0.01568627450980392" d="M 40.5 40 L 42 41.5 L 41.5 44 Q 37 42 40.5 40 Z "></path><path fill="rgb(55,120,121)" stroke="rgb(55,120,121)" stroke-width="1" opacity="0.01568627450980392" d="M 12.5 9 L 18 13.5 L 15.5 12 L 12.5 9 Z "></path><path fill="rgb(55,120,121)" stroke="rgb(55,120,121)" stroke-width="1" opacity="0.01568627450980392" d="M 37.5 9 L 37.5 12 Q 36 9.5 34.5 13 L 31.5 15 L 33.5 12 L 37.5 9 Z "></path><path fill="rgb(55,120,121)" stroke="rgb(55,120,121)" stroke-width="1" opacity="0.01568627450980392" d="M 42.5 9 L 44.5 12 L 42.5 9 Z "></path><path fill="rgb(55,120,121)" stroke="rgb(55,120,121)" stroke-width="1" opacity="0.01568627450980392" d="M 46.5 12 L 47.5 14 L 46.5 12 Z "></path><path fill="rgb(55,120,121)" stroke="rgb(55,120,121)" stroke-width="1" opacity="0.01568627450980392" d="M 19.5 14 L 20.5 16 L 19.5 14 Z "></path><path fill="rgb(55,120,121)" stroke="rgb(55,120,121)" stroke-width="1" opacity="0.01568627450980392" d="M 29.5 15 L 27.5 18 L 29.5 15 Z "></path><path fill="rgb(55,120,121)" stroke="rgb(55,120,121)" stroke-width="1" opacity="0.01568627450980392" d="M 23.5 17 L 27 19.5 L 25.5 19 L 23.5 17 Z "></path><path fill="rgb(55,120,121)" stroke="rgb(55,120,121)" stroke-width="1" opacity="0.01568627450980392" d="M 4.5 18 L 7 18.5 L 6.5 20 L 10 22.5 L 7.5 21 L 4.5 18 Z "></path><path fill="rgb(55,120,121)" stroke="rgb(55,120,121)" stroke-width="1" opacity="0.01568627450980392" d="M 40.5 22 L 39.5 24 L 40.5 22 Z "></path><path fill="rgb(55,120,121)" stroke="rgb(55,120,121)" stroke-width="1" opacity="0.01568627450980392" d="M 11.5 23 L 13.5 26 L 11.5 23 Z "></path><path fill="rgb(55,120,121)" stroke="rgb(55,120,121)" stroke-width="1" opacity="0.01568627450980392" d="M 36.5 25 L 35.5 27 L 36.5 25 Z "></path><path fill="rgb(55,120,121)" stroke="rgb(55,120,121)" stroke-width="1" opacity="0.01568627450980392" d="M 15.5 26 L 19 28 L 18.5 30 L 15.5 26 Z "></path><path fill="rgb(55,120,121)" stroke="rgb(55,120,121)" stroke-width="1" opacity="0.01568627450980392" d="M 31.5 32 L 32 37.5 L 31 37.5 L 31.5 32 Z "></path><path fill="rgb(192,41,57)" stroke="rgb(192,41,57)" stroke-width="1" opacity="0.7764705882352941" d="M 23 1 Q 26.8 0 28 2.5 L 28 15 L 23 15 L 23 1 Z "></path><path fill="rgb(192,41,57)" stroke="rgb(192,41,57)" stroke-width="1" opacity="0.7764705882352941" d="M 14.5 31 Q 17.8 32.2 17 36 L 6.5 43 L 4 39.5 L 14.5 31 Z "></path><path fill="rgb(192,41,57)" stroke="rgb(192,41,57)" stroke-width="1" opacity="0.7764705882352941" d="M 35.5 31 L 47 39.5 L 44.5 43 L 33 34.5 L 35.5 31 Z "></path></svg>