<svg width="current" height="current" viewBox="0 0 28 17" stroke="current" fill="none" xmlns="http://www.w3.org/2000/svg">
<path d="M6.99013 0L6.08761 0.0562008C4.78761 0.144218 3.60193 0.91771 2.6263 2.03976C1.65067 3.16164 0.867093 4.66439 0.408021 6.39698C-0.125059 8.40884 -0.115555 10.7222 0.318761 12.6882C0.535919 13.6711 0.859139 14.5673 1.31715 15.3065C1.77516 16.0455 2.39355 16.6614 3.22467 16.8867C4.36195 17.1948 5.53357 16.8495 6.51407 16.1528C7.34663 15.5609 8.02117 14.6071 8.63318 13.5841H18.465C19.077 14.6071 19.7516 15.5609 20.5841 16.1528C21.5646 16.8498 22.7362 17.1948 23.8735 16.8867C24.7046 16.6614 25.323 16.0455 25.781 15.3065C26.2391 14.5673 26.5623 13.6711 26.7794 12.6882C27.2137 10.7222 27.2232 8.40884 26.6902 6.39698C26.1653 4.41591 25.2168 2.73988 24.0355 1.59346C22.8543 0.447036 21.3541 -0.206026 19.8866 0.191744C19.0722 0.412464 18.5646 1.08668 18.0782 1.74884H9.01997C8.53358 1.08668 8.02596 0.412464 7.21163 0.191744C7.14756 0.174818 7.05821 0.175452 6.99013 0.165297V0ZM6.20001 1.74884H6.20332C6.3432 1.73191 6.54637 1.76724 6.76863 1.82818C7.25982 1.9619 7.68061 2.33531 8.04803 3.00509L8.28605 3.44478H18.8121L19.0502 3.00509C19.4176 2.33531 19.8384 1.96139 20.3296 1.82818C21.055 1.63166 21.9468 1.93131 22.8553 2.81335C23.7637 3.69487 24.6026 5.11821 25.057 6.83336C25.5033 8.51753 25.4995 10.6358 25.1265 12.3245C24.9399 13.1688 24.6601 13.9055 24.343 14.4172C24.0258 14.929 23.6959 15.1849 23.4305 15.2569C22.8732 15.4075 22.2559 15.2737 21.5627 14.7742C20.8694 14.2813 20.1585 13.4355 19.589 12.3477L19.351 11.8947H7.74719L7.50916 12.3477C6.93974 13.4355 6.22874 14.2813 5.53552 14.7742C4.8423 15.2669 4.22497 15.4079 3.66767 15.2569C3.40231 15.1841 3.07238 14.929 2.75523 14.4172C2.43808 13.9055 2.15826 13.1688 1.97173 12.3245C1.59866 10.6358 1.59489 8.51753 2.04115 6.83336C2.439 5.33182 3.12633 4.04638 3.90239 3.15386C4.67845 2.2615 5.52526 1.79454 6.20001 1.74884ZM5.93223 5.13411C5.70777 5.13411 5.49251 5.22328 5.33379 5.38199C5.17508 5.54071 5.08591 5.75597 5.08591 5.98043C5.08591 6.20489 5.17508 6.42015 5.33379 6.57887C5.49251 6.73758 5.70777 6.82675 5.93223 6.82675C6.15669 6.82675 6.37195 6.73758 6.53067 6.57887C6.68938 6.42015 6.77855 6.20489 6.77855 5.98043C6.77855 5.75597 6.68938 5.54071 6.53067 5.38199C6.37195 5.22328 6.15669 5.13411 5.93223 5.13411ZM20.3196 5.13742V6.83005H18.6237V8.52269H20.3196V10.2153H22.0123V8.52269H23.7016V6.83005H22.0123V5.13742H20.3196ZM4.23959 6.82675C4.01514 6.82675 3.79987 6.91591 3.64116 7.07463C3.48244 7.23334 3.39328 7.44861 3.39328 7.67306C3.39328 7.7842 3.41517 7.89426 3.4577 7.99694C3.50023 8.09962 3.56257 8.19291 3.64116 8.2715C3.71975 8.35009 3.81304 8.41243 3.91572 8.45496C4.0184 8.49749 4.12845 8.51938 4.23959 8.51938C4.35073 8.51938 4.46079 8.49749 4.56347 8.45496C4.66615 8.41243 4.75944 8.35009 4.83803 8.2715C4.91662 8.19291 4.97896 8.09962 5.02149 7.99694C5.06402 7.89426 5.08591 7.7842 5.08591 7.67306C5.08591 7.44861 4.99675 7.23334 4.83803 7.07463C4.67932 6.91591 4.46405 6.82675 4.23959 6.82675ZM7.62487 6.82675C7.40041 6.82675 7.18515 6.91591 7.02643 7.07463C6.86771 7.23334 6.77855 7.44861 6.77855 7.67306C6.77855 7.7842 6.80044 7.89426 6.84297 7.99694C6.8855 8.09962 6.94784 8.19291 7.02643 8.2715C7.10502 8.35009 7.19832 8.41243 7.301 8.45496C7.40368 8.49749 7.51373 8.51938 7.62487 8.51938C7.73601 8.51938 7.84606 8.49749 7.94874 8.45496C8.05142 8.41243 8.14472 8.35009 8.2233 8.2715C8.30189 8.19291 8.36423 8.09962 8.40676 7.99694C8.4493 7.89426 8.47119 7.7842 8.47119 7.67306C8.47119 7.44861 8.38202 7.23334 8.2233 7.07463C8.06459 6.91591 7.84933 6.82675 7.62487 6.82675ZM5.93223 8.51938C5.70777 8.51938 5.49251 8.60855 5.33379 8.76726C5.17508 8.92598 5.08591 9.14124 5.08591 9.3657C5.08591 9.59016 5.17508 9.80542 5.33379 9.96414C5.49251 10.1229 5.70777 10.212 5.93223 10.212C6.15669 10.212 6.37195 10.1229 6.53067 9.96414C6.68938 9.80542 6.77855 9.59016 6.77855 9.3657C6.77855 9.14124 6.68938 8.92598 6.53067 8.76726C6.37195 8.60855 6.15669 8.51938 5.93223 8.51938Z" fill="current"/>
</svg>
