<svg width="55" height="47" viewBox="0 0 55 47" fill="none" xmlns="http://www.w3.org/2000/svg">
<g clip-path="url(#clip0_1_1355)">
<path d="M18.1787 0.487732H36.9921L54.6852 30.8028H35.8297L18.1787 0.487732Z" fill="url(#paint0_linear_1_1355)"/>
<path d="M54.6841 30.8028L45.2561 47.0002H9.9541L19.4032 30.8028H54.6841Z" fill="url(#paint1_linear_1_1355)"/>
<path d="M9.95519 47.0001L0.569336 30.8028L18.1782 0.487732L27.6273 16.727L9.95519 47.0001Z" fill="url(#paint2_linear_1_1355)"/>
<path opacity="0.1" d="M9.9541 47.0001L27.5204 30.8028H19.4032L9.9541 47.0001ZM54.6841 30.8028H35.8492L31.7061 23.7021L54.6841 30.8028ZM18.1771 0.487732L23.6099 23.5969L27.6262 16.727L18.1771 0.487732Z" fill="black"/>
</g>
<defs>
<linearGradient id="paint0_linear_1_1355" x1="18.1787" y1="0.487732" x2="47.9776" y2="36.3728" gradientUnits="userSpaceOnUse">
<stop stop-color="#F6C338"/>
<stop offset="0.523" stop-color="#FFD351"/>
<stop offset="1" stop-color="#F6C338"/>
</linearGradient>
<linearGradient id="paint1_linear_1_1355" x1="54.6841" y1="30.8028" x2="44.3134" y2="59.4422" gradientUnits="userSpaceOnUse">
<stop stop-color="#286EE6"/>
<stop offset="0.521" stop-color="#4286FB"/>
<stop offset="1" stop-color="#286EE6"/>
</linearGradient>
<linearGradient id="paint2_linear_1_1355" x1="18.2382" y1="0.487731" x2="-2.0524" y2="40.7735" gradientUnits="userSpaceOnUse">
<stop stop-color="#069B5A"/>
<stop offset="0.531" stop-color="#11AA62"/>
<stop offset="1" stop-color="#069B5A"/>
</linearGradient>
<clipPath id="clip0_1_1355">
<rect width="54.1154" height="46.5124" fill="white" transform="translate(0.568359 0.487671)"/>
</clipPath>
</defs>
</svg>
