<svg width="18" height="18" viewBox="0 0 21 20" stroke="current" fill="current" xmlns="http://www.w3.org/2000/svg">
<path d="M16.3663 12.5994C17.7193 11.3089 18.7453 9.71445 19.3592 7.94825C19.9731 6.18206 20.1572 4.29499 19.8962 2.44345L19.8504 2.1249C19.7786 1.6302 19.549 1.17189 19.1959 0.818089C18.8427 0.464285 18.3849 0.233875 17.8903 0.161106L17.5688 0.115282C15.7171 -0.145854 13.8299 0.0381504 12.0636 0.652039C10.2972 1.26593 8.70265 2.29201 7.41206 3.64523C6.69627 3.27359 5.90925 3.05939 5.10384 3.01699C4.39228 2.95894 3.67654 3.05427 3.00497 3.29653C2.3334 3.53879 1.72164 3.92234 1.211 4.42129C1.07244 4.55989 0.994598 4.74785 0.994598 4.94383C0.994598 5.13982 1.07244 5.32778 1.211 5.46638L4.31522 8.5706L4.51256 8.76942L3.91685 9.52404C3.685 9.81718 3.56894 10.1853 3.59075 10.5584C3.61255 10.9315 3.77069 11.2836 4.0351 11.5477L8.46971 15.9823C8.73371 16.2466 9.0856 16.4048 9.45853 16.4267C9.83147 16.4487 10.1995 16.3329 10.4926 16.1013L11.248 15.5041L11.4461 15.7022L14.5503 18.8064C14.6889 18.945 14.8769 19.0228 15.0728 19.0228C15.2688 19.0228 15.4568 18.945 15.5954 18.8064C16.0935 18.2952 16.4766 17.6834 16.7188 17.012C16.961 16.3405 17.0568 15.6251 16.9997 14.9136C16.9565 14.1058 16.7405 13.3166 16.3663 12.5994ZM17.3596 1.5787L17.6811 1.62453C17.8592 1.65065 18.024 1.73352 18.1512 1.86082C18.2783 1.98812 18.361 2.15305 18.387 2.33111L18.4328 2.65262C18.6863 4.44027 18.4645 6.26316 17.7898 7.9379C17.1152 9.61265 16.0114 11.0802 14.5895 12.1929L12.0263 14.1929L5.81856 7.98819L7.81856 5.42499C8.93128 4.00273 10.3988 2.8985 12.0737 2.22332C13.7485 1.54815 15.5716 1.32582 17.3596 1.5787ZM5.01737 4.49002C5.49963 4.51683 5.97413 4.62322 6.42166 4.80488L4.76534 6.93497L2.83554 5.0074C3.49214 4.61427 4.25416 4.43357 5.01737 4.49002ZM9.50889 14.935L7.29159 12.7177L5.07428 10.4391L5.56283 9.82043L10.1763 14.4339L9.50889 14.935ZM15.0078 17.176L13.0787 15.2462L15.2066 13.5869C15.3886 14.0343 15.495 14.5089 15.5215 14.9912C15.58 15.755 15.4006 16.5182 15.0078 17.176ZM3.23318 13.9564L1.34995 16.7103C1.23929 16.8722 1.06885 16.9836 0.876116 17.0198C0.683381 17.0561 0.484142 17.0143 0.322228 16.9036C0.160313 16.7929 0.0489884 16.6225 0.0127423 16.4298C-0.0235038 16.237 0.0182982 16.0378 0.128953 15.8759L2.01292 13.122C2.06771 13.0419 2.13775 12.9733 2.21903 12.9203C2.30031 12.8672 2.39125 12.8307 2.48665 12.8128C2.58204 12.7949 2.68004 12.7959 2.77503 12.8159C2.87002 12.8358 2.96015 12.8743 3.04027 12.9291C3.1204 12.9839 3.18894 13.0539 3.242 13.1352C3.29506 13.2165 3.33158 13.3074 3.3495 13.4028C3.36741 13.4982 3.36636 13.5962 3.3464 13.6912C3.32644 13.7862 3.28797 13.8763 3.23318 13.9564ZM7.08242 16.9712C7.13722 17.0514 7.17569 17.1415 7.19565 17.2365C7.21561 17.3315 7.21667 17.4295 7.19876 17.5249C7.18084 17.6203 7.14431 17.7112 7.09125 17.7925C7.03819 17.8738 6.96964 17.9438 6.88951 17.9986L4.13562 19.8818C3.97382 19.9863 3.77763 20.0235 3.58881 19.9855C3.4 19.9474 3.23349 19.8372 3.12473 19.6783C3.01597 19.5193 2.97355 19.3242 3.00651 19.1344C3.03946 18.9447 3.14519 18.7753 3.30118 18.6623L6.05507 16.7783C6.13519 16.7235 6.22532 16.6851 6.32031 16.6651C6.41531 16.6451 6.5133 16.6441 6.6087 16.662C6.7041 16.6799 6.79504 16.7164 6.87632 16.7695C6.9576 16.8226 7.02763 16.8911 7.08242 16.9712ZM3.38691 17.3622C3.24075 17.3622 3.09789 17.3188 2.97637 17.2376C2.85486 17.1564 2.76015 17.041 2.70422 16.9059C2.64829 16.7709 2.63366 16.6223 2.66216 16.479C2.69067 16.3356 2.76103 16.2039 2.86437 16.1006L4.57391 14.394C4.64243 14.3252 4.72383 14.2706 4.81346 14.2333C4.90308 14.196 4.99918 14.1767 5.09626 14.1765C5.19334 14.1764 5.2895 14.1953 5.37925 14.2323C5.46901 14.2693 5.5506 14.3236 5.61937 14.3921C5.68814 14.4607 5.74273 14.5421 5.78004 14.6317C5.81735 14.7213 5.83664 14.8174 5.83681 14.9145C5.83698 15.0116 5.81803 15.1077 5.78104 15.1975C5.74405 15.2872 5.68974 15.3688 5.62122 15.4376L3.91093 17.1457C3.77236 17.2843 3.5844 17.3622 3.38839 17.3622H3.38691Z" fill="#B9B9B9"/>
</svg>
