<svg width="24" height="22" viewBox="0 0 24 22" fill="none" xmlns="http://www.w3.org/2000/svg">
<path fill-rule="evenodd" clip-rule="evenodd" d="M1.58691 11.5555H15.661V10.3827H1.58691V11.5555Z" fill="#EC3E50" stroke="#EC3E50" stroke-width="0.5"/>
<path fill-rule="evenodd" clip-rule="evenodd" d="M5.27669 6.44953L1.17176 10.5545C0.942748 10.7835 0.942748 11.1548 1.17176 11.3838L5.27669 15.4888L6.10601 14.6595L2.41574 10.9691L6.10601 7.27886L5.27669 6.44953ZM8.03707 1.58642C8.03707 1.26255 8.29962 1 8.62349 1H22.6975C23.0214 1 23.284 1.26255 23.284 1.58642V20.3518C23.284 20.6756 23.0214 20.9382 22.6975 20.9382H8.62349C8.29962 20.9382 8.03707 20.6756 8.03707 20.3518V16.8333H9.20991V19.7654H22.1111V2.17284H9.20991V5.10493H8.03707V1.58642Z" fill="#EC3E50" stroke="#EC3E50" stroke-width="0.5"/>
</svg>
