<svg width="curent" height="current" viewBox="0 0 22 25" stroke="current" fill="current" xmlns="http://www.w3.org/2000/svg">
<path d="M8.46618 23.913L11.0002 19.5242L13.5343 23.9135L13.6245 24.0697L13.7092 23.9104L16.0382 19.5295L20.9965 19.703L21.1768 19.7093L21.0866 19.553L17.2098 12.8378L17.6971 12.6211L17.7635 12.5916L17.756 12.5194L17.5389 10.4381L18.7666 8.74407L18.8091 8.68539L18.7666 8.62671L17.5389 6.93269L17.7564 4.85143L17.764 4.77919L17.6976 4.74967L15.7862 3.89947L14.936 1.98802L14.9064 1.92167L14.8342 1.9292L12.7529 2.1463L11.0589 0.919019L11.0002 0.876506L10.9416 0.919029L9.24754 2.14677L7.16628 1.92921L7.09404 1.92165L7.06452 1.98802L6.21431 3.89947L4.30287 4.74967L4.23652 4.77918L4.24405 4.85141L4.46115 6.93269L3.23387 8.62672L3.19135 8.6854L3.23388 8.74407L4.46162 10.4381L4.24405 12.5193L4.2365 12.5916L4.30286 12.6211L4.79072 12.8382L0.913402 19.5526L0.823171 19.7088L1.0035 19.7025L5.96222 19.5291L8.29129 23.91L8.37598 24.0693L8.46618 23.913ZM16.1564 13.3067L19.1493 18.4908L15.4242 18.3604L15.3617 18.3582L15.3324 18.4134L13.5827 21.7045L11.662 18.3775L13.4407 15.2964L13.8282 15.337L13.8283 15.337L14.8337 15.442L14.906 15.4496L14.9355 15.3832L15.7857 13.4713L16.1564 13.3067ZM5.64347 10.1585L5.64745 10.1205L5.62499 10.0895L4.6076 8.68539L5.62499 7.28131L5.64745 7.25031L5.64347 7.21225L5.46355 5.48892L7.04791 4.78375L7.08299 4.76814L7.0986 4.73306L7.80377 3.1487L9.5271 3.32862L9.56516 3.3326L9.59616 3.31014L11.0002 2.29275L12.4043 3.31014L12.4353 3.3326L12.4734 3.32862L14.1967 3.1487L14.9019 4.73306L14.9175 4.76814L14.9526 4.78375L16.5369 5.48892L16.357 7.21225L16.353 7.25031L16.3755 7.28131L17.3929 8.68539L16.3755 10.0895L16.353 10.1205L16.357 10.1585L16.5369 11.8819L14.9526 12.587L14.9175 12.6026L14.9019 12.6377L14.1967 14.2221L12.4734 14.0422L12.4353 14.0382L12.4043 14.0606L11.0002 15.078L9.59616 14.0606L9.56516 14.0382L9.5271 14.0422L7.80377 14.2221L7.0986 12.6377L7.08299 12.6026L7.0479 12.587L5.46355 11.8819L5.64347 10.1585ZM7.06451 15.3827L7.09401 15.4491L7.16626 15.4416L9.24754 15.2245L10.9416 16.4518L11.0002 16.4943L11.0589 16.4518L11.7315 15.9643L10.3673 18.3275L8.41774 21.7045L6.66807 18.4134L6.63874 18.3582L6.57628 18.3604L2.85164 18.4908L5.84456 13.3067L6.21478 13.4713L7.06451 15.3827Z" fill="current" stroke="current" stroke-width="0.2"/>
</svg>
