<svg width="current" height="current" viewBox="0 0 22 24" stroke="current" fill="none" xmlns="http://www.w3.org/2000/svg">
<path fill-rule="evenodd" clip-rule="evenodd" d="M1.29104 7.01064L1.99091 5.79616C2.583 4.76853 3.89514 4.41402 4.92418 5.00366C5.41402 5.29222 5.99851 5.37408 6.54878 5.23121C7.09904 5.08833 7.56988 4.73245 7.85745 4.24204C8.04246 3.93032 8.14187 3.57528 8.14563 3.21282C8.12894 2.6317 8.34819 2.06857 8.75341 1.65171C9.15864 1.23485 9.71534 0.999761 10.2967 1H11.7067C12.2763 1 12.8224 1.22695 13.2241 1.63065C13.6259 2.03435 13.8502 2.58152 13.8475 3.15107C13.8644 4.32699 14.8225 5.27138 15.9986 5.27126C16.361 5.26749 16.7161 5.16808 17.0278 4.98308C18.0568 4.39343 19.369 4.74794 19.9611 5.77557L20.7124 7.01064C21.3038 8.03699 20.9541 9.3483 19.9302 9.94391C19.2646 10.3282 18.8546 11.0383 18.8546 11.8068C18.8546 12.5753 19.2646 13.2854 19.9302 13.6697C20.9528 14.2613 21.3028 15.5694 20.7124 16.5927L20.0022 17.8174C19.7248 18.318 19.2594 18.6874 18.7088 18.8439C18.1583 19.0003 17.5682 18.9309 17.069 18.6511C16.5782 18.3647 15.9934 18.2863 15.4445 18.4332C14.8956 18.58 14.4281 18.9401 14.146 19.4333C13.961 19.745 13.8616 20.1001 13.8578 20.4625C13.8578 21.6505 12.8947 22.6136 11.7067 22.6136H10.2967C9.11271 22.6136 8.1513 21.6568 8.14563 20.4728C8.14839 19.9015 7.92264 19.3527 7.51864 18.9487C7.11464 18.5447 6.56591 18.319 5.99457 18.3217C5.63297 18.3314 5.27939 18.4304 4.96535 18.6099C3.939 19.2013 2.62769 18.8516 2.03208 17.8277L1.29104 16.5927C1.0042 16.1003 0.925475 15.514 1.07229 14.9634C1.21911 14.4128 1.57935 13.9435 2.07324 13.6594C2.56714 13.3752 2.92738 12.9059 3.0742 12.3554C3.22101 11.8048 3.14228 11.2185 2.85545 10.7261C2.66892 10.4005 2.39891 10.1304 2.07324 9.94391C1.05548 9.34862 0.706618 8.04497 1.29104 7.02093V7.01064Z" stroke="current" fill="none" stroke-width="1.68852" stroke-linecap="round" stroke-linejoin="round"/>
<path d="M10.997 14.7708C9.36 14.7708 8.03299 13.4438 8.03299 11.8068C8.03299 10.1699 9.36 8.84286 10.997 8.84286C12.6339 8.84286 13.9609 10.1699 13.9609 11.8068C13.9609 13.4438 12.6339 14.7708 10.997 14.7708Z" stroke="current" stroke-width="1.68852" stroke-linecap="round" stroke-linejoin="round"/>
</svg>
