<svg width="62" height="59" viewBox="0 0 62 59" fill="none" xmlns="http://www.w3.org/2000/svg">
<path d="M31.2795 35.1314C40.7241 35.1314 48.3804 27.4751 48.3804 18.0305C48.3804 8.58599 40.7241 0.929688 31.2795 0.929688C21.835 0.929688 14.1787 8.58599 14.1787 18.0305C14.1787 27.4751 21.835 35.1314 31.2795 35.1314Z" fill="url(#paint0_linear_1_1379)"/>
<path d="M47.3211 47.5408C55.4283 47.5408 62.0006 40.9686 62.0006 32.8613C62.0006 24.7541 55.4283 18.1818 47.3211 18.1818C39.2138 18.1818 32.6416 24.7541 32.6416 32.8613C32.6416 40.9686 39.2138 47.5408 47.3211 47.5408Z" fill="url(#paint1_linear_1_1379)"/>
<g filter="url(#filter0_d_1_1379)">
<path d="M33.0932 58.437C39.5289 58.437 44.746 53.2199 44.746 46.7842C44.746 40.3486 39.5289 35.1314 33.0932 35.1314C26.6576 35.1314 21.4404 40.3486 21.4404 46.7842C21.4404 53.2199 26.6576 58.437 33.0932 58.437Z" fill="black"/>
</g>
<path d="M33.0932 58.437C39.5289 58.437 44.746 53.2199 44.746 46.7842C44.746 40.3486 39.5289 35.1314 33.0932 35.1314C26.6576 35.1314 21.4404 40.3486 21.4404 46.7842C21.4404 53.2199 26.6576 58.437 33.0932 58.437Z" fill="url(#paint2_linear_1_1379)"/>
<g filter="url(#filter1_f_1_1379)">
<path fill-rule="evenodd" clip-rule="evenodd" d="M6.31133 15.4577H30.5249C31.8622 15.4577 32.9463 16.5418 32.9463 17.8791V42.0927C32.9463 43.43 28.8355 47.5407 27.4982 47.5407H3.28464C1.94736 47.5407 0.863281 46.4566 0.863281 45.1194V20.9058C0.863281 19.5685 4.97406 15.4577 6.31133 15.4577Z" fill="black" fill-opacity="0.1"/>
</g>
<mask id="mask0_1_1379" style="mask-type:alpha" maskUnits="userSpaceOnUse" x="3" y="15" width="30" height="30">
<path d="M30.5246 15.1553H6.31101C4.97373 15.1553 3.88965 16.2394 3.88965 17.5766V41.7902C3.88965 43.1275 4.97373 44.2116 6.31101 44.2116H30.5246C31.8619 44.2116 32.9459 43.1275 32.9459 41.7902V17.5766C32.9459 16.2394 31.8619 15.1553 30.5246 15.1553Z" fill="white"/>
</mask>
<g mask="url(#mask0_1_1379)">
<path d="M30.5246 15.1552H6.31101C4.97373 15.1552 3.88965 16.2393 3.88965 17.5765V41.7901C3.88965 43.1274 4.97373 44.2115 6.31101 44.2115H30.5246C31.8619 44.2115 32.9459 43.1274 32.9459 41.7901V17.5765C32.9459 16.2393 31.8619 15.1552 30.5246 15.1552Z" fill="url(#paint3_linear_1_1379)"/>
<path d="M30.5246 15.1552H6.31101C4.97373 15.1552 3.88965 16.2393 3.88965 17.5765V41.7901C3.88965 43.1274 4.97373 44.2115 6.31101 44.2115H30.5246C31.8619 44.2115 32.9459 43.1274 32.9459 41.7901V17.5765C32.9459 16.2393 31.8619 15.1552 30.5246 15.1552Z" fill="url(#paint4_radial_1_1379)"/>
<g filter="url(#filter2_dd_1_1379)">
<path d="M13.3344 36.5356V33.4805C13.9737 33.8622 14.6041 34.0715 15.3176 34.3268C16.0311 34.5821 16.7516 34.7098 17.4792 34.7098C17.9059 34.7098 18.8837 34.6713 19.202 34.5944C19.5203 34.5174 19.7861 34.4108 19.9995 34.2744C20.2128 34.1379 20.372 33.9771 20.4769 33.7917C20.5818 33.6063 20.6343 33.4052 20.6343 33.1883C20.6343 32.8945 20.5503 32.6322 20.3824 32.4014C20.2146 32.1705 19.9855 31.9572 19.6952 31.7613C19.4049 31.5654 19.0603 31.3766 18.6616 31.1947C18.2629 31.0128 17.2616 30.597 16.7999 30.4081C15.6247 29.9185 14.7143 29.416 14.1372 28.7094C13.56 28.0029 13.2715 27.2843 13.2715 26.284C13.2715 25.5005 13.4289 24.8272 13.7437 24.2641C14.0585 23.701 14.4869 23.2375 15.0291 22.8738C15.5712 22.51 16.199 22.2424 16.9125 22.0711C17.6261 21.8997 18.3815 21.814 19.179 21.814C19.9625 21.814 20.6568 21.8612 21.2619 21.9556C21.867 22.0501 22.7275 22.1952 23.2382 22.3911V25.2258C22.5368 24.9535 21.2058 24.521 20.891 24.4336C20.5762 24.3462 20.2632 24.2814 19.9519 24.2395C19.6406 24.1975 19.345 24.1765 19.0652 24.1765C18.6805 24.1765 18.3307 24.2132 18.0159 24.2867C17.7011 24.3601 17.4353 24.4633 17.2185 24.5962C17.0016 24.7291 16.8337 24.8883 16.7148 25.0737C16.5959 25.259 16.5322 25.6375 16.5322 25.8683C16.5322 26.1202 16.6029 26.4781 16.7358 26.6775C16.8687 26.8768 17.0576 27.0657 17.3024 27.2441C17.5472 27.4225 17.8445 27.5973 18.1943 27.7687C18.5441 27.9401 19.242 28.1167 19.6827 28.2986C20.2843 28.5505 20.8247 28.818 21.3038 29.1013C21.783 29.3846 22.194 29.7047 22.5368 30.0614C22.8795 30.4182 23.1418 30.8257 23.3237 31.2839C23.5056 31.7421 23.5965 32.2754 23.5965 32.884C23.5965 33.7235 23.4374 34.4282 23.1191 34.9984C22.8008 35.5685 22.3689 36.0302 21.8232 36.3834C21.2776 36.7367 20.6428 36.9903 19.9188 37.1442C19.1947 37.2981 18.4305 37.375 17.6261 37.375C16.8006 37.375 16.0154 37.3051 15.2704 37.1652C14.5254 37.0253 13.8801 36.8154 13.3344 36.5356Z" fill="black"/>
</g>
<path d="M13.3344 36.5356V33.4805C13.9737 33.8622 14.6041 34.0715 15.3176 34.3268C16.0311 34.5821 16.7516 34.7098 17.4792 34.7098C17.9059 34.7098 18.8837 34.6713 19.202 34.5944C19.5203 34.5174 19.7861 34.4108 19.9995 34.2744C20.2128 34.1379 20.372 33.9771 20.4769 33.7917C20.5818 33.6063 20.6343 33.4052 20.6343 33.1883C20.6343 32.8945 20.5503 32.6322 20.3824 32.4014C20.2146 32.1705 19.9855 31.9572 19.6952 31.7613C19.4049 31.5654 19.0603 31.3766 18.6616 31.1947C18.2629 31.0128 17.2616 30.597 16.7999 30.4081C15.6247 29.9185 14.7143 29.416 14.1372 28.7094C13.56 28.0029 13.2715 27.2843 13.2715 26.284C13.2715 25.5005 13.4289 24.8272 13.7437 24.2641C14.0585 23.701 14.4869 23.2375 15.0291 22.8738C15.5712 22.51 16.199 22.2424 16.9125 22.0711C17.6261 21.8997 18.3815 21.814 19.179 21.814C19.9625 21.814 20.6568 21.8612 21.2619 21.9556C21.867 22.0501 22.7275 22.1952 23.2382 22.3911V25.2258C22.5368 24.9535 21.2058 24.521 20.891 24.4336C20.5762 24.3462 20.2632 24.2814 19.9519 24.2395C19.6406 24.1975 19.345 24.1765 19.0652 24.1765C18.6805 24.1765 18.3307 24.2132 18.0159 24.2867C17.7011 24.3601 17.4353 24.4633 17.2185 24.5962C17.0016 24.7291 16.8337 24.8883 16.7148 25.0737C16.5959 25.259 16.5322 25.6375 16.5322 25.8683C16.5322 26.1202 16.6029 26.4781 16.7358 26.6775C16.8687 26.8768 17.0576 27.0657 17.3024 27.2441C17.5472 27.4225 17.8445 27.5973 18.1943 27.7687C18.5441 27.9401 19.242 28.1167 19.6827 28.2986C20.2843 28.5505 20.8247 28.818 21.3038 29.1013C21.783 29.3846 22.194 29.7047 22.5368 30.0614C22.8795 30.4182 23.1418 30.8257 23.3237 31.2839C23.5056 31.7421 23.5965 32.2754 23.5965 32.884C23.5965 33.7235 23.4374 34.4282 23.1191 34.9984C22.8008 35.5685 22.3689 36.0302 21.8232 36.3834C21.2776 36.7367 20.6428 36.9903 19.9188 37.1442C19.1947 37.2981 18.4305 37.375 17.6261 37.375C16.8006 37.375 16.0154 37.3051 15.2704 37.1652C14.5254 37.0253 13.8801 36.8154 13.3344 36.5356Z" fill="url(#paint5_linear_1_1379)"/>
</g>
<defs>
<filter id="filter0_d_1_1379" x="21.3275" y="34.7927" width="23.7573" height="23.7572" filterUnits="userSpaceOnUse" color-interpolation-filters="sRGB">
<feFlood flood-opacity="0" result="BackgroundImageFix"/>
<feColorMatrix in="SourceAlpha" type="matrix" values="0 0 0 0 0 0 0 0 0 0 0 0 0 0 0 0 0 0 127 0" result="hardAlpha"/>
<feOffset dx="0.11291" dy="-0.11291"/>
<feGaussianBlur stdDeviation="0.11291"/>
<feColorMatrix type="matrix" values="0 0 0 0 0 0 0 0 0 0.815686 0 0 0 0 0.862745 0 0 0 0.53 0"/>
<feBlend mode="normal" in2="BackgroundImageFix" result="effect1_dropShadow_1_1379"/>
<feBlend mode="normal" in="SourceGraphic" in2="effect1_dropShadow_1_1379" result="shape"/>
</filter>
<filter id="filter1_f_1_1379" x="0.524551" y="15.119" width="32.7605" height="32.7604" filterUnits="userSpaceOnUse" color-interpolation-filters="sRGB">
<feFlood flood-opacity="0" result="BackgroundImageFix"/>
<feBlend mode="normal" in="SourceGraphic" in2="BackgroundImageFix" result="shape"/>
<feGaussianBlur stdDeviation="0.169365" result="effect1_foregroundBlur_1_1379"/>
</filter>
<filter id="filter2_dd_1_1379" x="12.594" y="21.2494" width="11.6801" height="16.916" filterUnits="userSpaceOnUse" color-interpolation-filters="sRGB">
<feFlood flood-opacity="0" result="BackgroundImageFix"/>
<feColorMatrix in="SourceAlpha" type="matrix" values="0 0 0 0 0 0 0 0 0 0 0 0 0 0 0 0 0 0 127 0" result="hardAlpha"/>
<feOffset dy="0.11291"/>
<feGaussianBlur stdDeviation="0.33873"/>
<feColorMatrix type="matrix" values="0 0 0 0 0 0 0 0 0 0 0 0 0 0 0 0 0 0 0.1 0"/>
<feBlend mode="normal" in2="BackgroundImageFix" result="effect1_dropShadow_1_1379"/>
<feColorMatrix in="SourceAlpha" type="matrix" values="0 0 0 0 0 0 0 0 0 0 0 0 0 0 0 0 0 0 127 0" result="hardAlpha"/>
<feOffset dy="0.11291"/>
<feGaussianBlur stdDeviation="0.056455"/>
<feColorMatrix type="matrix" values="0 0 0 0 0 0 0 0 0 0 0 0 0 0 0 0 0 0 0.1 0"/>
<feBlend mode="normal" in2="effect1_dropShadow_1_1379" result="effect2_dropShadow_1_1379"/>
<feBlend mode="normal" in="SourceGraphic" in2="effect2_dropShadow_1_1379" result="shape"/>
</filter>
<linearGradient id="paint0_linear_1_1379" x1="18.5398" y1="3.72944" x2="45.0409" y2="32.6993" gradientUnits="userSpaceOnUse">
<stop stop-color="#004548"/>
<stop offset="1" stop-color="#03696D"/>
</linearGradient>
<linearGradient id="paint1_linear_1_1379" x1="33.6918" y1="22.5308" x2="60.6101" y2="45.2123" gradientUnits="userSpaceOnUse">
<stop stop-color="#00979E"/>
<stop offset="1" stop-color="#00D7DF"/>
</linearGradient>
<linearGradient id="paint2_linear_1_1379" x1="22.9073" y1="35.1314" x2="39.8099" y2="56.0347" gradientUnits="userSpaceOnUse">
<stop stop-color="#08CBDA"/>
<stop offset="1" stop-color="#00E5F2"/>
</linearGradient>
<linearGradient id="paint3_linear_1_1379" x1="4.51465" y1="17.9774" x2="36.7747" y2="45.5693" gradientUnits="userSpaceOnUse">
<stop stop-color="#004F51"/>
<stop offset="0.97164" stop-color="#007C7E"/>
</linearGradient>
<radialGradient id="paint4_radial_1_1379" cx="0" cy="0" r="1" gradientUnits="userSpaceOnUse" gradientTransform="translate(29.0527 39.6235) scale(18.1305)">
<stop offset="0.02414" stop-color="#047B7D"/>
<stop offset="0.97706" stop-color="#007C7E" stop-opacity="0"/>
</radialGradient>
<linearGradient id="paint5_linear_1_1379" x1="16.3141" y1="29.5945" x2="23.3862" y2="29.5945" gradientUnits="userSpaceOnUse">
<stop stop-color="#F0F0F0"/>
<stop offset="1" stop-color="white"/>
</linearGradient>
</defs>
</svg>
