<svg width="current" height="current" viewBox="0 0 22 22" stroke="current" fill="none" xmlns="http://www.w3.org/2000/svg">
<path d="M11 0.775C5.36191 0.775 0.775 5.36191 0.775 11C0.775 13.7315 1.83815 16.2995 3.7686 18.2299C5.7005 20.1618 8.26846 21.225 11 21.225C16.6381 21.225 21.225 16.6381 21.225 11C21.225 5.36191 16.6381 0.775 11 0.775ZM11 20.0357C8.88256 20.0357 6.88039 19.3064 5.26714 17.9747C6.62397 16.3149 8.64757 15.3243 10.8026 15.2899C10.807 15.2903 10.8139 15.2912 10.8294 15.2934L10.8299 15.2934C10.8472 15.2958 10.8782 15.3001 10.9128 15.3001H10.9468C10.9816 15.3001 11.012 15.2954 11.0278 15.293L11.0285 15.2928L11.047 15.2901C11.0474 15.29 11.0478 15.29 11.0481 15.2899C13.2382 15.3291 15.2764 16.3487 16.6326 18.0547C15.0874 19.2931 13.1297 20.0357 11 20.0357ZM10.9172 14.0931C10.8876 14.0931 10.8606 14.0954 10.8419 14.0971L10.8334 14.0979C10.8214 14.099 10.8133 14.0998 10.8059 14.1003C9.15578 14.0418 7.82858 12.6898 7.82858 10.9911C7.82858 9.29232 9.21082 7.90695 10.9482 7.90695C12.6471 7.90695 14.0324 9.28919 14.0324 11.0266C14.0324 12.693 12.7007 14.0493 11.0446 14.1018C11.0356 14.1012 11.0255 14.1003 11.0097 14.0987L11.0024 14.098C10.9811 14.0959 10.9505 14.0931 10.9172 14.0931ZM20.0372 11.0028C20.0358 13.4253 19.0734 15.6281 17.5118 17.2536C16.4439 15.9361 15.0257 14.9728 13.4331 14.4777C14.5102 13.7014 15.2217 12.4414 15.2217 10.9926C15.2217 8.63428 13.3024 6.71911 10.9128 6.71911C8.55443 6.71911 6.63926 8.63842 6.63926 11.0281C6.63926 12.4521 7.34734 13.7003 8.41895 14.474C6.85711 14.9571 5.45854 15.8911 4.39661 17.1661C2.8276 15.4879 1.9658 13.3124 1.9658 11.003C1.9658 6.02004 6.02 1.96727 11.0015 1.96727C15.9829 1.96727 20.0371 6.02143 20.0372 11.0028Z" fill="#B9B9B9" stroke="current" stroke-width="0.45"/>
</svg>
